<?xml version="1.0" encoding="UTF-8"?><svg id="a" xmlns="http://www.w3.org/2000/svg" viewBox="0 0 36 42"><path d="M33,42H3c-.8,0-1.5-.3-2.1-.9-.6-.6-.9-1.3-.9-2.1V12.5c0-.8,.3-1.5,.9-2.1,.6-.6,1.3-.9,2.1-.9h5.5c0-2.633,.883-4.875,2.65-6.725,1.767-1.85,3.967-2.775,6.6-2.775s4.917,.925,6.85,2.775c1.933,1.85,2.9,4.092,2.9,6.725h5.5c.8,0,1.5,.3,2.1,.9,.6,.6,.9,1.3,.9,2.1v26.5c0,.8-.3,1.5-.9,2.1-.6,.6-1.3,.9-2.1,.9ZM11.5,9.5h13c0-1.833-.625-3.375-1.875-4.625s-2.792-1.875-4.625-1.875-3.375,.625-4.625,1.875-1.875,2.792-1.875,4.625Zm21.5,29.5V12.5H3v26.5h30Zm-15-14.5c2.633,0,4.917-.967,6.85-2.9,1.933-1.933,2.9-4.217,2.9-6.85h-3c0,1.833-.667,3.417-2,4.75s-2.917,2-4.75,2-3.417-.667-4.75-2-2-2.917-2-4.75h-3c0,2.633,.967,4.917,2.9,6.85,1.933,1.933,4.217,2.9,6.85,2.9ZM3,12.5v0Z" style="fill:#39ce79;"/></svg>